<svg width="27" height="27" viewBox="0 0 27 27" fill="none" xmlns="http://www.w3.org/2000/svg">
<path d="M25.7172 9.27897L25.7173 9.27898C25.883 9.29213 26.0412 9.35356 26.1723 9.45568C26.3033 9.55769 26.4016 9.69583 26.4549 9.85303C26.564 10.1759 26.4712 10.5313 26.2184 10.7593L20.0953 16.2689L19.8631 16.4777L19.949 16.778L22.4177 25.4153C22.4178 25.4155 22.4178 25.4157 22.4179 25.4159C22.4649 25.5831 22.4598 25.7606 22.403 25.9247C22.3462 26.089 22.2405 26.232 22.1 26.3344C21.9594 26.4369 21.7909 26.4938 21.6171 26.4976C21.4432 26.5014 21.2723 26.4519 21.1274 26.3557L13.7774 21.4564L13.5001 21.2716L13.2228 21.4564L5.872 26.3563L5.87145 26.3566C5.72979 26.4513 5.56293 26.5013 5.39251 26.5C5.2221 26.4987 5.05602 26.4462 4.91582 26.3494C4.77562 26.2525 4.66778 26.1158 4.60628 25.9569C4.54478 25.798 4.53246 25.6244 4.57091 25.4584L4.57098 25.4581L6.5825 16.749L6.64582 16.4749L6.44432 16.2784L0.756734 10.7347L0.756699 10.7347C0.639744 10.6207 0.558113 10.4755 0.521562 10.3163C0.485012 10.1572 0.495087 9.99092 0.550585 9.83736C0.606082 9.6838 0.704655 9.54946 0.83452 9.45044L0.532587 9.05448L0.834521 9.45044C0.964386 9.35141 1.12004 9.29188 1.28287 9.27898L1.28299 9.27897L8.97939 8.6675L9.27385 8.64411L9.39545 8.37491L12.7259 1.00219L12.7265 1.0008C12.7934 0.851582 12.902 0.724891 13.0393 0.636023C13.1766 0.547155 13.3367 0.49991 13.5003 0.5C13.6638 0.50009 13.8239 0.547509 13.9611 0.636529C14.0983 0.725547 14.2068 0.852358 14.2735 1.00165L14.2743 1.00357L17.6048 8.37494L17.7264 8.64411L18.0208 8.6675L25.7172 9.27897Z" fill="white" stroke="#CCCCCC"/>
</svg>
