<svg width="27" height="27" viewBox="0 0 27 27" fill="none" xmlns="http://www.w3.org/2000/svg">
<path d="M26.9286 9.69302C26.8439 9.44303 26.6878 9.22336 26.4795 9.06118C26.2712 8.899 26.02 8.80143 25.7568 8.78054L18.0604 8.16907L14.73 0.797701C14.6239 0.560284 14.4514 0.358633 14.2332 0.217085C14.0151 0.0755376 13.7606 0.000142918 13.5006 2.02984e-07C13.2405 -0.000142512 12.9859 0.0749729 12.7676 0.216281C12.5493 0.357589 12.3766 0.55905 12.2703 0.796351L8.93979 8.16907L1.24339 8.78054C0.984806 8.80103 0.737596 8.89556 0.531338 9.05284C0.32508 9.21012 0.168507 9.42349 0.0803517 9.66741C-0.00780356 9.91134 -0.0238087 10.1755 0.0342513 10.4283C0.0923113 10.6811 0.221978 10.9118 0.407738 11.0928L6.09532 16.6365L4.08381 25.3455C4.02273 25.6092 4.04231 25.8851 4.14 26.1374C4.23769 26.3898 4.40898 26.6069 4.63165 26.7607C4.85431 26.9146 5.11808 26.9979 5.38871 27C5.65933 27.002 5.92434 26.9227 6.14932 26.7723L13.5001 21.8725L20.8509 26.7723C21.0809 26.925 21.3521 27.0036 21.628 26.9975C21.904 26.9915 22.1715 26.9011 22.3945 26.7385C22.6175 26.5759 22.7854 26.3489 22.8756 26.088C22.9658 25.8272 22.9739 25.545 22.8989 25.2794L20.4297 16.6406L26.5533 11.1306C26.9543 10.7688 27.1014 10.2046 26.9286 9.69302Z" fill="#FFC700"/>
</svg>
